<mxfile host="65bd71144e">
    <diagram id="5AeTIjcBtzn1FjqenRLT" name="Page-1">
        <mxGraphModel dx="563" dy="683" grid="1" gridSize="10" guides="1" tooltips="1" connect="1" arrows="1" fold="1" page="1" pageScale="1" pageWidth="850" pageHeight="1100" math="0" shadow="0">
            <root>
                <mxCell id="0"/>
                <mxCell id="1" parent="0"/>
                <mxCell id="2" value="x&amp;lt;0?" style="rhombus;whiteSpace=wrap;html=1;" vertex="1" parent="1">
                    <mxGeometry x="125" y="300" width="110" height="110" as="geometry"/>
                </mxCell>
                <mxCell id="3" value="Entry Point" style="rounded=0;whiteSpace=wrap;html=1;" vertex="1" parent="1">
                    <mxGeometry x="120" y="170" width="120" height="60" as="geometry"/>
                </mxCell>
                <mxCell id="5" value="" style="endArrow=classic;html=1;exitX=0.5;exitY=1;exitDx=0;exitDy=0;entryX=0.5;entryY=0;entryDx=0;entryDy=0;" edge="1" parent="1" source="3" target="2">
                    <mxGeometry width="50" height="50" relative="1" as="geometry">
                        <mxPoint x="160" y="360" as="sourcePoint"/>
                        <mxPoint x="210" y="310" as="targetPoint"/>
                    </mxGeometry>
                </mxCell>
                <mxCell id="6" value="" style="endArrow=classic;html=1;exitX=0.5;exitY=1;exitDx=0;exitDy=0;" edge="1" parent="1" source="2">
                    <mxGeometry width="50" height="50" relative="1" as="geometry">
                        <mxPoint x="160" y="360" as="sourcePoint"/>
                        <mxPoint x="180" y="480" as="targetPoint"/>
                    </mxGeometry>
                </mxCell>
                <mxCell id="7" value="y = 0" style="rounded=0;whiteSpace=wrap;html=1;" vertex="1" parent="1">
                    <mxGeometry x="120" y="480" width="120" height="60" as="geometry"/>
                </mxCell>
                <mxCell id="8" value="" style="endArrow=classic;html=1;exitX=1;exitY=0.5;exitDx=0;exitDy=0;" edge="1" parent="1" source="2">
                    <mxGeometry width="50" height="50" relative="1" as="geometry">
                        <mxPoint x="260" y="360" as="sourcePoint"/>
                        <mxPoint x="310" y="355" as="targetPoint"/>
                    </mxGeometry>
                </mxCell>
                <mxCell id="9" value="x&amp;lt;1?" style="rhombus;whiteSpace=wrap;html=1;" vertex="1" parent="1">
                    <mxGeometry x="310" y="300" width="110" height="110" as="geometry"/>
                </mxCell>
                <mxCell id="10" value="" style="endArrow=classic;html=1;exitX=0.5;exitY=1;exitDx=0;exitDy=0;" edge="1" parent="1">
                    <mxGeometry width="50" height="50" relative="1" as="geometry">
                        <mxPoint x="365" y="410" as="sourcePoint"/>
                        <mxPoint x="365" y="480" as="targetPoint"/>
                    </mxGeometry>
                </mxCell>
                <mxCell id="11" value="y = 1" style="rounded=0;whiteSpace=wrap;html=1;" vertex="1" parent="1">
                    <mxGeometry x="305" y="480" width="120" height="60" as="geometry"/>
                </mxCell>
                <mxCell id="12" value="" style="endArrow=classic;html=1;exitX=1;exitY=0.5;exitDx=0;exitDy=0;entryX=0.5;entryY=0;entryDx=0;entryDy=0;rounded=0;" edge="1" parent="1" target="13">
                    <mxGeometry width="50" height="50" relative="1" as="geometry">
                        <mxPoint x="420" y="354.5" as="sourcePoint"/>
                        <mxPoint x="450" y="460" as="targetPoint"/>
                        <Array as="points">
                            <mxPoint x="550" y="355"/>
                        </Array>
                    </mxGeometry>
                </mxCell>
                <mxCell id="13" value="y = 2" style="rounded=0;whiteSpace=wrap;html=1;" vertex="1" parent="1">
                    <mxGeometry x="490" y="480" width="120" height="60" as="geometry"/>
                </mxCell>
                <mxCell id="14" value="Lenguajes de programación, Ejercicio 7.2, página 283" style="text;html=1;align=center;verticalAlign=middle;resizable=0;points=[];autosize=1;strokeColor=none;fillColor=none;" vertex="1" parent="1">
                    <mxGeometry x="190" y="110" width="310" height="30" as="geometry"/>
                </mxCell>
                <mxCell id="15" value="" style="endArrow=classic;html=1;exitX=0.5;exitY=1;exitDx=0;exitDy=0;endSize=6;" edge="1" parent="1">
                    <mxGeometry width="50" height="50" relative="1" as="geometry">
                        <mxPoint x="179.37999999999988" y="540" as="sourcePoint"/>
                        <mxPoint x="179.37999999999988" y="680" as="targetPoint"/>
                    </mxGeometry>
                </mxCell>
                <mxCell id="17" value="" style="endArrow=classic;html=1;exitX=0.5;exitY=1;exitDx=0;exitDy=0;endSize=6;rounded=0;" edge="1" parent="1">
                    <mxGeometry width="50" height="50" relative="1" as="geometry">
                        <mxPoint x="364.37999999999977" y="540" as="sourcePoint"/>
                        <mxPoint x="180" y="600" as="targetPoint"/>
                        <Array as="points">
                            <mxPoint x="364" y="600"/>
                        </Array>
                    </mxGeometry>
                </mxCell>
                <mxCell id="18" value="" style="endArrow=classic;html=1;exitX=0.5;exitY=1;exitDx=0;exitDy=0;endSize=6;rounded=0;" edge="1" parent="1" source="13">
                    <mxGeometry width="50" height="50" relative="1" as="geometry">
                        <mxPoint x="564.3799999999998" y="540" as="sourcePoint"/>
                        <mxPoint x="364" y="600" as="targetPoint"/>
                        <Array as="points">
                            <mxPoint x="550" y="600"/>
                        </Array>
                    </mxGeometry>
                </mxCell>
                <mxCell id="19" value="True" style="text;html=1;align=center;verticalAlign=middle;resizable=0;points=[];autosize=1;strokeColor=none;fillColor=none;" vertex="1" parent="1">
                    <mxGeometry x="175" y="420" width="50" height="30" as="geometry"/>
                </mxCell>
                <mxCell id="20" value="True" style="text;html=1;align=center;verticalAlign=middle;resizable=0;points=[];autosize=1;strokeColor=none;fillColor=none;" vertex="1" parent="1">
                    <mxGeometry x="360" y="420" width="50" height="30" as="geometry"/>
                </mxCell>
                <mxCell id="21" value="False" style="text;html=1;align=center;verticalAlign=middle;resizable=0;points=[];autosize=1;strokeColor=none;fillColor=none;" vertex="1" parent="1">
                    <mxGeometry x="235" y="320" width="50" height="30" as="geometry"/>
                </mxCell>
                <mxCell id="22" value="False" style="text;html=1;align=center;verticalAlign=middle;resizable=0;points=[];autosize=1;strokeColor=none;fillColor=none;" vertex="1" parent="1">
                    <mxGeometry x="420" y="320" width="50" height="30" as="geometry"/>
                </mxCell>
            </root>
        </mxGraphModel>
    </diagram>
</mxfile>